# Blender 4.1.1
# www.blender.org
mtllib gareki.mtl
o Cube
v -1.398472 -0.670325 -1.913416
v -1.398472 -0.801504 -1.913416
v -0.434392 0.049306 1.363178
v -0.615797 -0.043165 1.566797
v 1.023182 0.158465 -1.227339
v 1.283684 -0.158465 -1.468898
v 1.000000 0.158465 1.913416
v 1.000000 -0.466925 1.913416
vn -0.3232 0.9463 -0.0024
vn -0.2097 -0.0000 0.9778
vn 0.9965 -0.0000 0.0836
vn -0.2306 -0.9671 -0.1075
vn -0.9756 -0.0000 0.2194
vn 0.1635 -0.0000 -0.9865
vn 0.0090 0.9761 -0.2170
vn -0.1765 0.9459 0.2724
vn 0.7746 0.6324 0.0057
vn 0.2041 -0.9650 0.1644
vn -0.4937 0.8684 -0.0455
vn 0.0138 0.6133 -0.7897
vt 0.500000 0.500000
vt 0.749957 0.500000
vt 0.749957 0.749957
vt 0.250043 0.749957
vt 0.500000 0.999913
vt 0.250043 0.999913
vt 0.500000 0.000087
vt 0.250043 0.250043
vt 0.250043 0.000087
vt 0.000087 0.500000
vt 0.000087 0.749957
vt 0.250043 0.500000
vt 0.500000 0.749957
vt 0.500000 0.250043
s 0
g Cube_Material
usemtl Material
f 1/1/1 7/3/1 5/2/1
f 4/4/2 8/6/2 7/5/2
f 7/7/3 8/9/3 6/8/3
f 6/10/4 8/11/4 4/4/4
f 1/1/5 2/12/5 4/4/5
f 6/8/6 2/12/6 1/1/6
f 7/3/7 1/1/7 3/13/7
f 4/4/8 7/5/8 3/13/8
f 7/7/9 6/8/9 5/14/9
f 6/10/10 4/4/10 2/12/10
f 1/1/11 4/4/11 3/13/11
f 6/8/12 1/1/12 5/14/12
