# Blender 4.1.1
# www.blender.org
mtllib bullet.mtl
g 円柱.001_円柱.001
v 0.000000 -0.091605 0.760659
v 0.000000 0.339765 0.760659
v -0.148397 -0.091605 0.746043
v -0.148397 0.339765 0.746043
v -0.291092 -0.091605 0.702757
v -0.291092 0.339765 0.702757
v -0.422599 -0.091605 0.632465
v -0.422599 0.339765 0.632465
v -0.537867 -0.091605 0.537867
v -0.537867 0.339765 0.537867
v -0.632465 -0.091605 0.422599
v -0.632465 0.339765 0.422599
v -0.702757 -0.091605 0.291092
v -0.702757 0.339765 0.291092
v -0.746043 -0.091605 0.148397
v -0.746043 0.339765 0.148397
v -0.760659 -0.091605 0.000000
v -0.760659 0.339765 0.000000
v -0.746043 -0.091605 -0.148397
v -0.746043 0.339765 -0.148397
v -0.702757 -0.091605 -0.291092
v -0.702757 0.339765 -0.291092
v -0.632465 -0.091605 -0.422599
v -0.632465 0.339765 -0.422599
v -0.537867 -0.091605 -0.537867
v -0.537867 0.339765 -0.537867
v -0.422599 -0.091605 -0.632465
v -0.422599 0.339765 -0.632465
v -0.291092 -0.091605 -0.702757
v -0.291092 0.339765 -0.702757
v -0.148397 -0.091605 -0.746043
v -0.148397 0.339765 -0.746043
v 0.000000 -0.091605 -0.760659
v 0.000000 0.339765 -0.760659
v 0.148397 -0.091605 -0.746043
v 0.148397 0.339765 -0.746043
v 0.291092 -0.091605 -0.702757
v 0.291092 0.339765 -0.702757
v 0.422599 -0.091605 -0.632465
v 0.422599 0.339765 -0.632465
v 0.537867 -0.091605 -0.537867
v 0.537867 0.339765 -0.537867
v 0.632465 -0.091605 -0.422599
v 0.632465 0.339765 -0.422599
v 0.702757 -0.091605 -0.291092
v 0.702757 0.339765 -0.291092
v 0.746043 -0.091605 -0.148397
v 0.746043 0.339765 -0.148397
v 0.760659 -0.091605 0.000000
v 0.760659 0.339765 0.000000
v 0.746043 -0.091605 0.148397
v 0.746043 0.339765 0.148397
v 0.702757 -0.091605 0.291092
v 0.702757 0.339765 0.291092
v 0.632465 -0.091605 0.422599
v 0.632465 0.339765 0.422599
v 0.537867 -0.091605 0.537867
v 0.537867 0.339765 0.537867
v 0.422599 -0.091605 0.632465
v 0.422599 0.339765 0.632465
v 0.291092 -0.091605 0.702757
v 0.291092 0.339765 0.702757
v 0.148397 -0.091605 0.746043
v 0.148397 0.339765 0.746043
v 0.000000 -0.174104 1.000000
v 0.000000 0.174104 1.000000
v -0.382752 -0.174104 0.926874
v -0.382752 0.174104 0.926874
v -0.382683 -0.174104 0.923879
v -0.382683 0.174104 0.923879
v -0.382436 -0.174104 0.921608
v -0.382436 0.174104 0.921608
v -0.707107 -0.174104 0.707107
v -0.707107 0.174104 0.707107
v -0.922193 -0.174104 0.388389
v -0.922193 0.174104 0.388389
v -0.923879 -0.174104 0.382683
v -0.923879 0.174104 0.382683
v -0.923543 -0.174104 0.384126
v -0.923543 0.174104 0.384126
v -1.000000 -0.174104 0.000000
v -1.000000 0.174104 0.000000
v -0.925569 -0.174104 -0.383184
v -0.925569 0.174104 -0.383184
v -0.923879 -0.174104 -0.382683
v -0.923879 0.174104 -0.382683
v -0.923375 -0.174104 -0.380335
v -0.923375 0.174104 -0.380335
v -0.707107 -0.174104 -0.707107
v -0.707107 0.174104 -0.707107
v -0.372861 -0.174104 -0.925639
v -0.372861 0.174104 -0.925639
v -0.382683 -0.174104 -0.923879
v -0.382683 0.174104 -0.923879
v -0.381216 -0.174104 -0.921803
v -0.381216 0.174104 -0.921803
v 0.000000 -0.174104 -1.000000
v 0.000000 0.174104 -1.000000
v 0.383952 -0.174104 -0.929439
v 0.383952 0.174104 -0.929439
v 0.382683 -0.174104 -0.923879
v 0.382683 0.174104 -0.923879
v 0.381425 -0.174104 -0.925843
v 0.381425 0.174104 -0.925843
v 0.707107 -0.174104 -0.707107
v 0.707107 0.174104 -0.707107
v 0.926381 -0.174104 -0.392535
v 0.926381 0.174104 -0.392535
v 0.923879 -0.174104 -0.382683
v 0.923879 0.174104 -0.382683
v 0.924448 -0.174104 -0.385897
v 0.924448 0.174104 -0.385897
v 1.000000 -0.174104 0.000000
v 1.000000 0.174104 0.000000
v 0.919656 -0.174104 0.378213
v 0.919656 0.174104 0.378213
v 0.923879 -0.174104 0.382683
v 0.923879 0.174104 0.382683
v 0.919788 -0.174104 0.383269
v 0.919788 0.174104 0.383269
v 0.707107 -0.174104 0.707107
v 0.707107 0.174104 0.707107
v 0.388694 -0.174104 0.926251
v 0.388694 0.174104 0.926251
v 0.382683 -0.174104 0.923879
v 0.382683 0.174104 0.923879
v 0.383007 -0.174104 0.926851
v 0.383007 0.174104 0.926851
v 0.000000 -0.174104 1.304071
v -0.224895 -0.174104 1.283392
v -0.224895 0.174104 1.283392
v 0.000000 0.174104 1.304071
v -0.748471 0.174104 1.066520
v -0.748471 -0.174104 1.066520
v -0.922117 -0.174104 0.922117
v -0.922117 0.174104 0.922117
v -1.066520 -0.174104 0.748471
v -1.066520 0.174104 0.748471
v -1.283392 0.174104 0.224895
v -1.283392 -0.174104 0.224895
v -1.304071 -0.174104 0.000000
v -1.304071 0.174104 0.000000
v -1.283392 -0.174104 -0.224895
v -1.283392 0.174104 -0.224895
v -1.066520 0.174104 -0.748471
v -1.066520 -0.174104 -0.748471
v -0.922117 -0.174104 -0.922117
v -0.922117 0.174104 -0.922117
v -0.748471 -0.174104 -1.066520
v -0.748471 0.174104 -1.066520
v -0.224895 0.174104 -1.283392
v -0.224895 -0.174104 -1.283392
v 0.000000 -0.174104 -1.304071
v 0.000000 0.174104 -1.304071
v 0.224895 -0.174104 -1.283392
v 0.224895 0.174104 -1.283392
v 0.748471 0.174104 -1.066520
v 0.748471 -0.174104 -1.066520
v 0.922117 -0.174104 -0.922117
v 0.922117 0.174104 -0.922117
v 1.066520 -0.174104 -0.748471
v 1.066520 0.174104 -0.748471
v 1.283392 0.174104 -0.224895
v 1.283392 -0.174104 -0.224895
v 1.304071 -0.174104 0.000000
v 1.304071 0.174104 0.000000
v 1.283392 -0.174104 0.224895
v 1.283392 0.174104 0.224895
v 1.066520 0.174104 0.748471
v 1.066520 -0.174104 0.748471
v 0.922117 -0.174104 0.922117
v 0.922117 0.174104 0.922117
v 0.748471 -0.174104 1.066520
v 0.748471 0.174104 1.066520
v 0.224895 0.174104 1.283392
v 0.224895 -0.174104 1.283392
vn -0.0980 -0.0000 0.9952
vn -0.2903 -0.0000 0.9569
vn -0.4714 -0.0000 0.8819
vn -0.6344 -0.0000 0.7730
vn -0.7730 -0.0000 0.6344
vn -0.8819 -0.0000 0.4714
vn -0.9569 -0.0000 0.2903
vn -0.9952 -0.0000 0.0980
vn -0.9952 -0.0000 -0.0980
vn -0.9569 -0.0000 -0.2903
vn -0.8819 -0.0000 -0.4714
vn -0.7730 -0.0000 -0.6344
vn -0.6344 -0.0000 -0.7730
vn -0.4714 -0.0000 -0.8819
vn -0.2903 -0.0000 -0.9569
vn -0.0980 -0.0000 -0.9952
vn 0.0980 -0.0000 -0.9952
vn 0.2903 -0.0000 -0.9569
vn 0.4714 -0.0000 -0.8819
vn 0.6344 -0.0000 -0.7730
vn 0.7730 -0.0000 -0.6344
vn 0.8819 -0.0000 -0.4714
vn 0.9569 -0.0000 -0.2903
vn 0.9952 -0.0000 -0.0980
vn 0.9952 -0.0000 0.0980
vn 0.9569 -0.0000 0.2903
vn 0.8819 -0.0000 0.4714
vn 0.7730 -0.0000 0.6344
vn 0.6344 -0.0000 0.7730
vn 0.4714 -0.0000 0.8819
vn -0.0000 1.0000 -0.0000
vn 0.2903 -0.0000 0.9569
vn 0.0980 -0.0000 0.9952
vn -0.0000 -1.0000 -0.0000
vn -0.9997 -0.0000 -0.0228
vn -0.9941 -0.0000 -0.1083
vn -0.9590 -0.0000 0.2835
vn 0.9739 -0.0000 -0.2270
vn 0.9279 -0.0000 -0.3728
vn 0.2841 -0.0000 -0.9588
vn 0.9777 -0.0000 -0.2099
vn -0.4046 -0.0000 -0.9145
vn 0.1763 -0.0000 0.9843
vn 0.8166 -0.0000 -0.5772
vn 0.9749 -0.0000 0.2225
vn -0.8420 -0.0000 0.5395
vn 0.9141 -0.0000 0.4054
vn 0.9693 -0.0000 0.2461
vn -0.9847 -0.0000 -0.1743
vn 0.3512 -0.0000 -0.9363
vn 0.7268 -0.0000 -0.6868
vn 0.1417 -0.0000 0.9899
vn -0.3670 -0.0000 0.9302
vn 0.9941 -0.0000 -0.1082
vn 0.9121 -0.0000 -0.4099
vn -0.0916 -0.0000 0.9958
vn -0.6394 -0.0000 0.7689
vn -0.7689 -0.0000 0.6394
vn -0.9958 -0.0000 0.0916
vn -0.9958 -0.0000 -0.0916
vn -0.7689 -0.0000 -0.6394
vn -0.6394 -0.0000 -0.7689
vn -0.0916 -0.0000 -0.9958
vn 0.0916 -0.0000 -0.9958
vn 0.6394 -0.0000 -0.7689
vn 0.7689 -0.0000 -0.6394
vn 0.9958 -0.0000 -0.0916
vn 0.9958 -0.0000 0.0916
vn 0.7689 -0.0000 0.6394
vn 0.6394 -0.0000 0.7689
vn 0.0916 -0.0000 0.9958
vn -0.9282 -0.0000 -0.3720
vn 0.4093 -0.0000 -0.9124
vn -0.9144 -0.0000 0.4049
vn -0.3579 -0.0000 -0.9338
vn -0.9179 -0.0000 -0.3968
vn -0.9320 -0.0000 0.3624
vn -0.3632 -0.0000 0.9317
vn -0.4046 -0.0000 0.9145
vn 0.3884 -0.0000 0.9215
vn 0.3681 -0.0000 0.9298
vn 0.9305 -0.0000 0.3663
vn -0.9997 -0.0000 -0.0227
vn 0.8166 -0.0000 -0.5771
vn 0.9692 -0.0000 0.2461
vn -0.0001 -1.0000 -0.0000
vt 0.643570 0.000207
vt 0.363724 0.017697
vt 0.363724 0.000207
vt 0.643570 0.017697
vt 0.363724 0.035187
vt 0.643570 0.035187
vt 0.363724 0.052678
vt 0.643570 0.052678
vt 0.363724 0.070168
vt 0.643570 0.070168
vt 0.363724 0.087658
vt 0.643570 0.087658
vt 0.363724 0.105149
vt 0.643570 0.105149
vt 0.363724 0.122639
vt 0.643570 0.122639
vt 0.363724 0.140129
vt 0.643570 0.140129
vt 0.363724 0.157620
vt 0.643570 0.157620
vt 0.363724 0.175110
vt 0.643570 0.175110
vt 0.363724 0.192600
vt 0.643570 0.192600
vt 0.363724 0.210091
vt 0.643570 0.210091
vt 0.363724 0.227581
vt 0.643570 0.227581
vt 0.363724 0.245072
vt 0.643570 0.245072
vt 0.363724 0.262562
vt 0.643570 0.262562
vt 0.363724 0.280052
vt 0.643570 0.280052
vt 0.363724 0.297543
vt 0.643570 0.297543
vt 0.363724 0.315033
vt 0.643570 0.315033
vt 0.363724 0.332523
vt 0.643570 0.332523
vt 0.363724 0.350014
vt 0.643570 0.350014
vt 0.363724 0.367504
vt 0.643570 0.367504
vt 0.363724 0.384994
vt 0.643570 0.384994
vt 0.363724 0.402485
vt 0.643570 0.402485
vt 0.363724 0.419975
vt 0.643570 0.419975
vt 0.363724 0.437465
vt 0.643570 0.437465
vt 0.363724 0.454956
vt 0.643570 0.454956
vt 0.363724 0.472446
vt 0.643570 0.472446
vt 0.363724 0.489936
vt 0.643570 0.489936
vt 0.363724 0.507427
vt 0.643570 0.507427
vt 0.363724 0.524917
vt 0.143835 0.731102
vt 0.218321 0.870457
vt 0.078966 0.944944
vt 0.643570 0.524917
vt 0.363724 0.542408
vt 0.643570 0.542407
vt 0.363724 0.559898
vt 0.863576 0.564584
vt 0.724221 0.639071
vt 0.798708 0.778426
vt 0.457360 0.895874
vt 0.428222 0.876404
vt 0.457360 0.895874
vt 0.363311 0.022901
vt 0.000207 0.045595
vt 0.000207 0.022901
vt 0.363311 0.045595
vt 0.000207 0.068289
vt 0.769995 0.349180
vt 0.737619 0.335769
vt 0.804366 0.356017
vt 0.363311 0.113677
vt 0.000207 0.136371
vt 0.000207 0.113677
vt 0.363311 0.136371
vt 0.000207 0.159065
vt 0.906158 0.335769
vt 0.935296 0.316300
vt 0.363311 0.612946
vt 0.000207 0.612946
vt 0.363311 0.204453
vt 0.000207 0.227147
vt 0.000207 0.204453
vt 0.363311 0.227147
vt 0.000207 0.249841
vt 0.593523 0.909285
vt 0.559152 0.916121
vt 0.363311 0.295229
vt 0.000207 0.317923
vt 0.000207 0.295229
vt 0.363311 0.317923
vt 0.000207 0.340617
vt 0.625899 0.895874
vt 0.625899 0.895874
vt 0.699287 0.822486
vt 0.712698 0.790109
vt 0.363311 0.386005
vt 0.000207 0.408699
vt 0.000207 0.386005
vt 0.363311 0.408699
vt 0.000207 0.431393
vt 0.992957 0.230005
vt 0.999793 0.195634
vt 0.363311 0.703722
vt 0.000207 0.703722
vt 0.363311 0.476781
vt 0.000207 0.499475
vt 0.000207 0.476781
vt 0.363311 0.499475
vt 0.000207 0.522169
vt 0.712698 0.686323
vt 0.699287 0.653946
vt 0.363311 0.567557
vt 0.000207 0.590252
vt 0.000207 0.567558
vt 0.363311 0.590252
vt 0.979546 0.093842
vt 0.960076 0.064704
vt 0.873781 0.349180
vt 0.873781 0.349180
vt 0.363311 0.658334
vt 0.000207 0.681028
vt 0.000207 0.658334
vt 0.979546 0.262381
vt 0.960076 0.291520
vt 0.960076 0.064704
vt 0.363311 0.681028
vt 0.719535 0.755738
vt 0.719535 0.720694
vt 0.593522 0.567148
vt 0.363311 0.000207
vt 0.000207 0.000207
vt 0.363311 0.068289
vt 0.000207 0.090983
vt 0.363311 0.090983
vt 0.363311 0.159065
vt 0.000207 0.181759
vt 0.363311 0.181759
vt 0.363311 0.249841
vt 0.000207 0.272535
vt 0.363311 0.272535
vt 0.363311 0.340617
vt 0.000207 0.363311
vt 0.363311 0.363311
vt 0.363311 0.431393
vt 0.000207 0.454087
vt 0.363311 0.454087
vt 0.363311 0.522169
vt 0.000207 0.544863
vt 0.363311 0.544863
vt 0.000207 0.635640
vt 0.363311 0.635640
vt 0.000207 0.726416
vt 0.664231 0.262381
vt 0.650820 0.230005
vt 0.650820 0.230005
vt 0.370561 0.790109
vt 0.363724 0.755738
vt 0.650820 0.126219
vt 0.664231 0.093842
vt 0.383972 0.653947
vt 0.403441 0.624808
vt 0.489737 0.909285
vt 0.737619 0.020454
vt 0.769995 0.007043
vt 0.683700 0.291520
vt 0.489736 0.567148
vt 0.524107 0.560311
vt 0.383972 0.822486
vt 0.873781 0.007043
vt 0.906158 0.020454
vt 0.643983 0.160590
vt 0.625899 0.580559
vt 0.655037 0.600028
vt 0.625899 0.580559
vt 0.370561 0.686323
vt 0.992957 0.126219
vt 0.992957 0.126219
vt 0.708480 0.039924
vt 0.737619 0.020454
vt 0.457360 0.580559
vt 0.839411 0.000207
vt 0.679817 0.851624
vt 0.699287 0.822486
vt 0.058730 0.936562
vt 0.040518 0.924393
vt 0.025031 0.908905
vt 0.012862 0.890693
vt 0.004480 0.870457
vt 0.000207 0.848974
vt 0.000207 0.827071
vt 0.004480 0.805589
vt 0.012862 0.785353
vt 0.025031 0.767141
vt 0.040518 0.751653
vt 0.058730 0.739484
vt 0.078966 0.731102
vt 0.100449 0.726829
vt 0.122352 0.726829
vt 0.164071 0.739484
vt 0.209939 0.785353
vt 0.182282 0.751653
vt 0.197770 0.767141
vt 0.218321 0.805589
vt 0.222594 0.827071
vt 0.222594 0.848974
vt 0.209939 0.890693
vt 0.164071 0.936562
vt 0.197770 0.908905
vt 0.182282 0.924393
vt 0.143835 0.944944
vt 0.122352 0.949217
vt 0.100449 0.949217
vt 0.643570 0.559898
vt 0.820190 0.782699
vt 0.842093 0.782699
vt 0.863576 0.778426
vt 0.883812 0.770044
vt 0.902024 0.757875
vt 0.917512 0.742387
vt 0.929681 0.724175
vt 0.938063 0.703939
vt 0.942336 0.682457
vt 0.942336 0.660553
vt 0.938063 0.639071
vt 0.929681 0.618835
vt 0.917512 0.600623
vt 0.902024 0.585135
vt 0.883812 0.572966
vt 0.842093 0.560311
vt 0.820190 0.560311
vt 0.798708 0.564584
vt 0.778472 0.572966
vt 0.760260 0.585135
vt 0.744772 0.600623
vt 0.732603 0.618835
vt 0.719948 0.660553
vt 0.719948 0.682457
vt 0.724221 0.703939
vt 0.732603 0.724175
vt 0.744772 0.742387
vt 0.760260 0.757875
vt 0.778472 0.770044
vt 0.428222 0.876404
vt 0.804366 0.356017
vt 0.839410 0.356017
vt 0.708480 0.316300
vt 0.643983 0.195634
vt 0.683700 0.064704
vt 0.804366 0.000207
vt 0.839411 0.000207
vt 0.935296 0.039924
vt 0.999793 0.160590
vt 0.524107 0.916121
vt 0.679818 0.851624
vt 0.655038 0.876404
vt 0.403442 0.851624
vt 0.363724 0.720694
vt 0.428221 0.600028
vt 0.679817 0.624808
vt 0.559152 0.560311
vt 0.363311 0.726416
s 0
usemtl マテリアル
f 2/1/1 3/2/1 1/3/1
f 4/4/2 5/5/2 3/2/2
f 6/6/3 7/7/3 5/5/3
f 8/8/4 9/9/4 7/7/4
f 10/10/5 11/11/5 9/9/5
f 12/12/6 13/13/6 11/11/6
f 14/14/7 15/15/7 13/13/7
f 16/16/8 17/17/8 15/15/8
f 18/18/9 19/19/9 17/17/9
f 20/20/10 21/21/10 19/19/10
f 22/22/11 23/23/11 21/21/11
f 24/24/12 25/25/12 23/23/12
f 26/26/13 27/27/13 25/25/13
f 28/28/14 29/29/14 27/27/14
f 30/30/15 31/31/15 29/29/15
f 32/32/16 33/33/16 31/31/16
f 34/34/17 35/35/17 33/33/17
f 36/36/18 37/37/18 35/35/18
f 38/38/19 39/39/19 37/37/19
f 40/40/20 41/41/20 39/39/20
f 42/42/21 43/43/21 41/41/21
f 44/44/22 45/45/22 43/43/22
f 46/46/23 47/47/23 45/45/23
f 48/48/24 49/49/24 47/47/24
f 50/50/25 51/51/25 49/49/25
f 52/52/26 53/53/26 51/51/26
f 54/54/27 55/55/27 53/53/27
f 56/56/28 57/57/28 55/55/28
f 58/58/29 59/59/29 57/57/29
f 60/60/30 61/61/30 59/59/30
f 38/62/31 22/63/31 6/64/31
f 62/65/32 63/66/32 61/61/32
f 64/67/33 1/68/33 63/66/33
f 31/69/34 47/70/34 63/71/34
f 121/72/34 170/73/34 171/74/34
f 68/75/35 69/76/35 67/77/35
f 70/78/36 71/79/36 69/76/36
f 66/80/31 175/81/31 128/81/31
f 66/80/31 131/82/31 132/80/31
f 76/83/37 77/84/37 75/85/37
f 78/86/38 79/87/38 77/84/38
f 74/88/31 138/89/31 136/88/31
f 120/90/39 170/91/39 119/91/39
f 84/92/40 85/93/40 83/94/40
f 86/95/41 87/96/41 85/93/41
f 83/94/42 144/92/42 84/92/42
f 65/97/34 176/98/34 129/97/34
f 92/99/43 93/100/43 91/101/43
f 94/102/44 95/103/44 93/100/44
f 65/97/34 130/104/34 67/105/34
f 73/106/34 137/107/34 75/107/34
f 100/108/45 101/109/45 99/110/45
f 102/111/46 103/112/46 101/109/46
f 82/113/31 144/114/31 142/113/31
f 128/115/47 176/116/47 127/116/47
f 108/117/48 109/118/48 107/119/48
f 110/120/49 111/121/49 109/118/49
f 91/101/50 150/99/50 92/99/50
f 81/122/34 143/123/34 83/123/34
f 116/124/51 117/125/51 115/126/51
f 118/127/52 119/91/52 117/125/52
f 90/128/31 150/129/31 148/128/31
f 74/88/31 133/130/31 72/131/31
f 124/132/53 125/133/53 123/134/53
f 80/135/34 78/136/34 92/137/34
f 126/138/54 127/116/54 125/133/54
f 99/110/55 156/108/55 100/108/55
f 77/139/31 79/140/31 91/141/31
f 132/142/56 130/77/56 129/143/56
f 133/144/57 135/145/57 134/79/57
f 136/146/58 137/85/58 135/145/58
f 139/147/59 141/148/59 140/87/59
f 142/149/60 143/94/60 141/148/60
f 145/150/61 147/151/61 146/96/61
f 148/152/62 149/101/62 147/151/62
f 151/153/63 153/154/63 152/103/63
f 154/155/64 155/110/64 153/154/64
f 157/156/65 159/157/65 158/112/65
f 160/158/66 161/119/66 159/157/66
f 163/159/67 165/160/67 164/121/67
f 166/161/68 167/126/68 165/160/68
f 169/90/69 171/162/69 170/91/69
f 172/163/70 173/134/70 171/162/70
f 175/115/71 129/164/71 176/116/71
f 75/85/72 138/83/72 76/83/72
f 112/159/73 164/121/73 111/121/73
f 122/165/31 169/166/31 120/167/31
f 113/168/34 164/169/34 165/168/34
f 67/77/74 131/75/74 68/75/74
f 104/156/75 158/112/75 103/112/75
f 114/170/31 163/171/31 112/171/31
f 105/172/34 158/173/34 159/172/34
f 121/72/34 173/174/34 123/174/34
f 96/153/76 152/103/76 95/103/76
f 106/175/31 157/176/31 104/176/31
f 122/165/31 174/177/31 172/165/31
f 97/178/34 152/179/34 153/178/34
f 113/168/34 167/180/34 115/180/34
f 88/150/77 146/96/77 87/96/77
f 123/134/78 174/132/78 124/132/78
f 98/181/31 151/182/31 96/182/31
f 114/170/31 168/183/31 166/170/31
f 89/184/34 146/185/34 147/186/34
f 105/172/34 161/187/34 107/187/34
f 80/147/79 140/87/79 79/87/79
f 115/126/80 168/124/80 116/124/80
f 90/128/31 145/188/31 88/189/31
f 106/175/31 162/190/31 160/191/31
f 81/122/34 140/140/34 141/122/34
f 97/178/34 155/192/34 99/192/34
f 72/144/81 134/79/81 71/79/81
f 107/119/82 162/117/82 108/117/82
f 82/113/31 139/135/31 80/135/31
f 98/181/31 156/193/31 154/181/31
f 73/106/34 134/194/34 135/195/34
f 89/184/34 149/141/34 91/141/34
f 2/1/1 4/4/1 3/2/1
f 4/4/2 6/6/2 5/5/2
f 6/6/3 8/8/3 7/7/3
f 8/8/4 10/10/4 9/9/4
f 10/10/5 12/12/5 11/11/5
f 12/12/6 14/14/6 13/13/6
f 14/14/7 16/16/7 15/15/7
f 16/16/8 18/18/8 17/17/8
f 18/18/9 20/20/9 19/19/9
f 20/20/10 22/22/10 21/21/10
f 22/22/11 24/24/11 23/23/11
f 24/24/12 26/26/12 25/25/12
f 26/26/13 28/28/13 27/27/13
f 28/28/14 30/30/14 29/29/14
f 30/30/15 32/32/15 31/31/15
f 32/32/16 34/34/16 33/33/16
f 34/34/17 36/36/17 35/35/17
f 36/36/18 38/38/18 37/37/18
f 38/38/19 40/40/19 39/39/19
f 40/40/20 42/42/20 41/41/20
f 42/42/21 44/44/21 43/43/21
f 44/44/22 46/46/22 45/45/22
f 46/46/23 48/48/23 47/47/23
f 48/48/24 50/50/24 49/49/24
f 50/50/25 52/52/25 51/51/25
f 52/52/26 54/54/26 53/53/26
f 54/54/27 56/56/27 55/55/27
f 56/56/28 58/58/28 57/57/28
f 58/58/29 60/60/29 59/59/29
f 60/60/30 62/65/30 61/61/30
f 6/64/31 4/196/31 2/197/31
f 2/197/31 64/198/31 6/64/31
f 64/198/31 62/199/31 6/64/31
f 62/199/31 60/200/31 58/201/31
f 58/201/31 56/202/31 54/203/31
f 54/203/31 52/204/31 50/205/31
f 50/205/31 48/206/31 54/203/31
f 48/206/31 46/207/31 54/203/31
f 46/207/31 44/208/31 42/209/31
f 42/209/31 40/210/31 38/62/31
f 38/62/31 36/211/31 30/212/31
f 36/211/31 34/213/31 30/212/31
f 34/213/31 32/214/31 30/212/31
f 30/212/31 28/215/31 26/216/31
f 26/216/31 24/217/31 22/63/31
f 22/63/31 20/218/31 14/219/31
f 20/218/31 18/220/31 14/219/31
f 18/220/31 16/221/31 14/219/31
f 14/219/31 12/222/31 10/223/31
f 10/223/31 8/224/31 6/64/31
f 62/199/31 58/201/31 6/64/31
f 58/201/31 54/203/31 6/64/31
f 46/207/31 42/209/31 54/203/31
f 42/209/31 38/62/31 54/203/31
f 30/212/31 26/216/31 38/62/31
f 26/216/31 22/63/31 38/62/31
f 14/219/31 10/223/31 22/63/31
f 10/223/31 6/64/31 22/63/31
f 6/64/31 54/203/31 38/62/31
f 62/65/32 64/67/32 63/66/32
f 64/67/33 2/225/33 1/68/33
f 63/71/34 1/226/34 3/227/34
f 3/227/34 5/228/34 7/229/34
f 7/229/34 9/230/34 11/231/34
f 11/231/34 13/232/34 15/233/34
f 15/233/34 17/234/34 19/235/34
f 19/235/34 21/236/34 23/237/34
f 23/237/34 25/238/34 27/239/34
f 27/239/34 29/240/34 31/69/34
f 31/69/34 33/241/34 35/242/34
f 35/242/34 37/243/34 39/244/34
f 39/244/34 41/245/34 43/246/34
f 43/246/34 45/247/34 47/70/34
f 47/70/34 49/248/34 51/249/34
f 51/249/34 53/250/34 55/251/34
f 55/251/34 57/252/34 59/253/34
f 59/253/34 61/254/34 63/71/34
f 63/71/34 3/227/34 15/233/34
f 3/227/34 7/229/34 15/233/34
f 7/229/34 11/231/34 15/233/34
f 15/233/34 19/235/34 31/69/34
f 19/235/34 23/237/34 31/69/34
f 23/237/34 27/239/34 31/69/34
f 31/69/34 35/242/34 47/70/34
f 35/242/34 39/244/34 47/70/34
f 39/244/34 43/246/34 47/70/34
f 47/70/34 51/249/34 63/71/34
f 51/249/34 55/251/34 63/71/34
f 55/251/34 59/253/34 63/71/34
f 63/71/34 15/233/34 31/69/34
f 121/72/34 119/255/34 170/73/34
f 68/75/83 70/78/83 69/76/83
f 70/78/36 72/144/36 71/79/36
f 66/80/31 132/80/31 175/81/31
f 66/80/31 68/256/31 131/82/31
f 76/83/37 78/86/37 77/84/37
f 78/86/38 80/147/38 79/87/38
f 74/88/31 76/89/31 138/89/31
f 120/90/39 169/90/39 170/91/39
f 84/92/40 86/95/40 85/93/40
f 86/95/41 88/150/41 87/96/41
f 83/94/42 143/94/42 144/92/42
f 65/97/34 127/98/34 176/98/34
f 92/99/43 94/102/43 93/100/43
f 94/102/84 96/153/84 95/103/84
f 65/97/34 129/97/34 130/104/34
f 73/106/34 135/195/34 137/107/34
f 100/108/45 102/111/45 101/109/45
f 102/111/46 104/156/46 103/112/46
f 82/113/31 84/114/31 144/114/31
f 128/115/47 175/115/47 176/116/47
f 108/117/85 110/120/85 109/118/85
f 110/120/49 112/159/49 111/121/49
f 91/101/50 149/101/50 150/99/50
f 81/122/34 141/122/34 143/123/34
f 116/124/51 118/127/51 117/125/51
f 118/127/52 120/90/52 119/91/52
f 90/128/31 92/137/31 150/129/31
f 74/88/31 136/88/31 133/130/31
f 124/132/53 126/138/53 125/133/53
f 70/257/31 68/256/31 72/131/31
f 68/256/31 66/80/31 72/131/31
f 66/80/31 128/81/31 126/258/31
f 126/258/31 124/177/31 122/165/31
f 120/167/31 118/259/31 116/183/31
f 126/258/31 122/165/31 116/183/31
f 122/165/31 120/167/31 116/183/31
f 66/80/31 126/258/31 72/131/31
f 76/89/31 74/88/31 78/136/31
f 74/88/31 72/131/31 78/136/31
f 116/183/31 114/170/31 112/171/31
f 112/171/31 110/260/31 108/190/31
f 108/190/31 106/175/31 112/171/31
f 106/175/31 104/176/31 98/181/31
f 112/171/31 106/175/31 116/183/31
f 104/176/31 102/261/31 100/262/31
f 100/262/31 98/181/31 104/176/31
f 98/181/31 96/182/31 106/175/31
f 116/183/31 106/175/31 96/182/31
f 126/258/31 116/183/31 72/131/31
f 78/136/31 72/131/31 96/182/31
f 116/183/31 96/182/31 72/131/31
f 78/136/34 96/182/34 92/137/34
f 96/182/34 94/263/34 92/137/34
f 84/114/31 82/113/31 88/189/31
f 82/113/31 80/135/31 88/189/31
f 86/264/31 84/114/31 88/189/31
f 92/137/31 90/128/31 88/189/31
f 92/137/31 88/189/31 80/135/31
f 126/138/54 128/115/54 127/116/54
f 99/110/55 155/110/55 156/108/55
f 127/98/34 65/97/34 125/265/34
f 65/97/34 67/105/34 71/266/34
f 67/105/34 69/267/34 71/266/34
f 71/266/34 73/106/34 77/139/34
f 73/106/34 75/107/34 77/139/34
f 65/97/34 71/266/34 125/265/34
f 121/72/34 123/174/34 125/265/34
f 125/265/34 71/266/34 115/180/34
f 71/266/34 77/139/34 95/179/34
f 115/180/34 71/266/34 95/179/34
f 119/255/34 121/72/34 115/180/34
f 121/72/34 125/265/34 115/180/34
f 115/180/34 117/268/34 119/255/34
f 111/169/34 113/168/34 115/180/34
f 107/187/86 109/269/86 111/169/86
f 103/173/34 105/172/34 97/178/34
f 105/172/34 107/187/34 111/169/34
f 99/192/34 101/270/34 103/173/34
f 95/179/34 97/178/34 105/172/34
f 97/178/34 99/192/34 103/173/34
f 105/172/34 111/169/34 115/180/34
f 105/172/34 115/180/34 95/179/34
f 79/140/34 81/122/34 87/185/34
f 81/122/34 83/123/34 87/185/34
f 83/123/34 85/271/34 87/185/34
f 93/272/31 95/179/31 91/141/31
f 95/179/31 77/139/31 91/141/31
f 79/140/34 87/185/34 91/141/34
f 87/185/34 89/184/34 91/141/34
f 132/142/56 131/75/56 130/77/56
f 133/144/57 136/146/57 135/145/57
f 136/146/58 138/83/58 137/85/58
f 139/147/59 142/149/59 141/148/59
f 142/149/60 144/92/60 143/94/60
f 145/150/61 148/152/61 147/151/61
f 148/152/62 150/99/62 149/101/62
f 151/153/63 154/155/63 153/154/63
f 154/155/64 156/108/64 155/110/64
f 157/156/65 160/158/65 159/157/65
f 160/158/66 162/117/66 161/119/66
f 163/159/67 166/161/67 165/160/67
f 166/161/68 168/124/68 167/126/68
f 169/90/69 172/163/69 171/162/69
f 172/163/70 174/132/70 173/134/70
f 175/115/71 132/273/71 129/164/71
f 75/85/72 137/85/72 138/83/72
f 112/159/73 163/159/73 164/121/73
f 122/165/31 172/165/31 169/166/31
f 113/168/34 111/169/34 164/169/34
f 67/77/74 130/77/74 131/75/74
f 104/156/75 157/156/75 158/112/75
f 114/170/31 166/170/31 163/171/31
f 105/172/34 103/173/34 158/173/34
f 121/72/34 171/74/34 173/174/34
f 96/153/76 151/153/76 152/103/76
f 106/175/31 160/191/31 157/176/31
f 122/165/31 124/177/31 174/177/31
f 97/178/34 95/179/34 152/179/34
f 113/168/34 165/168/34 167/180/34
f 88/150/77 145/150/77 146/96/77
f 123/134/78 173/134/78 174/132/78
f 98/181/31 154/181/31 151/182/31
f 114/170/31 116/183/31 168/183/31
f 89/184/34 87/185/34 146/185/34
f 105/172/34 159/172/34 161/187/34
f 80/147/79 139/147/79 140/87/79
f 115/126/80 167/126/80 168/124/80
f 90/128/31 148/128/31 145/188/31
f 106/175/31 108/190/31 162/190/31
f 81/122/34 79/140/34 140/140/34
f 97/178/34 153/178/34 155/192/34
f 72/144/81 133/144/81 134/79/81
f 107/119/82 161/119/82 162/117/82
f 82/113/31 142/113/31 139/135/31
f 98/181/31 100/262/31 156/193/31
f 73/106/34 71/266/34 134/194/34
f 89/184/34 147/186/34 149/141/34
